<svg xmlns="http://www.w3.org/2000/svg" width="1007" height="300" fill="none"><rect width="244" height="244" x="17" y="28" fill="url(#a)" rx="42"/><path fill="#fff" fill-rule="evenodd" d="M218.706 88.38a1.966 1.966 0 0 1-.26 2.806l-38.076 31.16c-.853.698-2.105.571-2.845-.245a43.006 43.006 0 0 0-3.122-3.11c-.823-.741-.95-2.002-.246-2.857l31.283-37.922a1.968 1.968 0 0 1 2.796-.26 96.22 96.22 0 0 1 10.47 10.427Zm-29.4-23.046c.988.5 1.354 1.718.83 2.693l-23.265 43.263c-.522.971-1.729 1.332-2.724.859a42.43 42.43 0 0 0-3.971-1.641c-1.042-.37-1.643-1.484-1.321-2.542l14.287-46.968a1.968 1.968 0 0 1 2.485-1.313 95.479 95.479 0 0 1 13.679 5.649ZM153.288 55.28a1.967 1.967 0 0 1 1.799 2.164l-4.772 48.845c-.107 1.098-1.085 1.898-2.187 1.842a43.812 43.812 0 0 0-4.495 0c-1.102.056-2.08-.744-2.187-1.842l-4.772-48.845a1.967 1.967 0 0 1 1.799-2.164 97.587 97.587 0 0 1 14.815 0Zm-37.154 4.404a1.968 1.968 0 0 1 2.485 1.313l14.287 46.968c.322 1.058-.279 2.172-1.321 2.542a42.43 42.43 0 0 0-3.971 1.641c-.995.473-2.202.112-2.724-.859l-23.265-43.263a1.968 1.968 0 0 1 .83-2.693 95.479 95.479 0 0 1 13.679-5.649ZM83.525 77.952a1.968 1.968 0 0 1 2.796.26l31.283 37.922c.704.855.577 2.116-.246 2.857a43.006 43.006 0 0 0-3.122 3.11c-.74.816-1.992.943-2.845.245l-38.076-31.16a1.968 1.968 0 0 1-.26-2.807 96.274 96.274 0 0 1 10.47-10.427ZM60.379 107.24a1.968 1.968 0 0 1 2.684-.827l43.444 23.177c.977.521 1.34 1.735.862 2.734a41.589 41.589 0 0 0-1.64 3.94c-.372 1.039-1.481 1.637-2.537 1.318l-47.168-14.234a1.967 1.967 0 0 1-1.315-2.49 94.68 94.68 0 0 1 5.67-13.618Zm-7.935 34.09a1.967 1.967 0 0 0-2.163 1.798 96.459 96.459 0 0 0 0 14.746 1.967 1.967 0 0 0 2.163 1.798l49.055-4.755c1.1-.106 1.9-1.085 1.844-2.189a44.18 44.18 0 0 1 0-4.454c.056-1.104-.744-2.083-1.844-2.189l-49.055-4.755Zm2.265 38.814a1.967 1.967 0 0 1 1.315-2.49l47.168-14.234c1.056-.319 2.165.279 2.537 1.318a41.589 41.589 0 0 0 1.64 3.94c.478.999.115 2.213-.862 2.734l-43.444 23.177a1.968 1.968 0 0 1-2.684-.827 94.68 94.68 0 0 1-5.67-13.618Zm18.346 32.478a1.968 1.968 0 0 1 .26-2.807l38.076-31.16c.853-.698 2.105-.571 2.845.245a43.006 43.006 0 0 0 3.122 3.11c.823.741.95 2.002.246 2.857L86.321 222.79c-.7.849-1.958.974-2.796.259a96.312 96.312 0 0 1-10.47-10.427Zm29.4 23.045c-.988-.5-1.354-1.718-.83-2.693l23.265-43.263c.522-.971 1.729-1.332 2.724-.859a42.43 42.43 0 0 0 3.971 1.641c1.042.37 1.643 1.484 1.321 2.542l-14.287 46.968a1.968 1.968 0 0 1-2.485 1.313 95.423 95.423 0 0 1-13.679-5.649Zm36.018 10.053a1.967 1.967 0 0 1-1.799-2.164l4.772-48.845c.107-1.098 1.085-1.898 2.187-1.842a43.85 43.85 0 0 0 4.495 0c1.102-.056 2.08.744 2.187 1.842l4.772 48.845a1.967 1.967 0 0 1-1.799 2.164 97.632 97.632 0 0 1-14.815 0Zm37.154-4.404a1.968 1.968 0 0 1-2.485-1.313l-14.287-46.968c-.322-1.058.279-2.172 1.321-2.542a42.43 42.43 0 0 0 3.971-1.641c.995-.473 2.202-.112 2.724.859l23.265 43.263c.524.975.158 2.193-.83 2.693a95.423 95.423 0 0 1-13.679 5.649Zm32.609-18.267a1.968 1.968 0 0 1-2.796-.26l-31.283-37.922c-.704-.855-.577-2.116.246-2.857a43.006 43.006 0 0 0 3.122-3.11c.74-.816 1.992-.943 2.845-.245l38.076 31.16c.857.701.983 1.967.26 2.807a96.247 96.247 0 0 1-10.47 10.427Z" clip-rule="evenodd"/><path fill="#18181B" d="M352.117 210.352c-8.064 0-15.4-1.68-22.008-5.04-6.496-3.36-11.648-8.232-15.456-14.616s-5.712-14.112-5.712-23.184v-2.352c0-9.072 1.904-16.8 5.712-23.184s8.96-11.256 15.456-14.616c6.608-3.36 13.944-5.04 22.008-5.04 7.952 0 14.784 1.4 20.496 4.2 5.712 2.8 10.304 6.664 13.776 11.592 3.584 4.816 5.936 10.304 7.056 16.464l-20.496 4.368c-.448-3.36-1.456-6.384-3.024-9.072-1.568-2.688-3.808-4.816-6.72-6.384-2.8-1.568-6.328-2.352-10.584-2.352-4.256 0-8.12.952-11.592 2.856-3.36 1.792-6.048 4.536-8.064 8.232-1.904 3.584-2.856 8.008-2.856 13.272v1.68c0 5.264.952 9.744 2.856 13.44 2.016 3.584 4.704 6.328 8.064 8.232 3.472 1.792 7.336 2.688 11.592 2.688 6.384 0 11.2-1.624 14.448-4.872 3.36-3.36 5.488-7.728 6.384-13.104l20.496 4.872a46.127 46.127 0 0 1-7.56 16.296c-3.472 4.816-8.064 8.624-13.776 11.424-5.712 2.8-12.544 4.2-20.496 4.2Zm83.486 0c-5.936 0-11.256-1.008-15.96-3.024-4.704-2.128-8.456-5.152-11.256-9.072-2.688-4.032-4.032-8.904-4.032-14.616s1.344-10.472 4.032-14.28c2.8-3.92 6.608-6.832 11.424-8.736 4.928-2.016 10.528-3.024 16.8-3.024h22.848v-4.704c0-3.92-1.232-7.112-3.696-9.576-2.464-2.576-6.384-3.864-11.76-3.864-5.264 0-9.184 1.232-11.76 3.696-2.576 2.352-4.256 5.432-5.04 9.24l-19.488-6.552c1.344-4.256 3.472-8.12 6.384-11.592 3.024-3.584 7-6.44 11.928-8.568 5.04-2.24 11.144-3.36 18.312-3.36 10.976 0 19.656 2.744 26.04 8.232 6.384 5.488 9.576 13.44 9.576 23.856v31.08c0 3.36 1.568 5.04 4.704 5.04h6.72V208h-14.112c-4.144 0-7.56-1.008-10.248-3.024-2.688-2.016-4.032-4.704-4.032-8.064v-.168h-3.192c-.448 1.344-1.456 3.136-3.024 5.376-1.568 2.128-4.032 4.032-7.392 5.712-3.36 1.68-7.952 2.52-13.776 2.52Zm3.696-17.136c5.936 0 10.752-1.624 14.448-4.872 3.808-3.36 5.712-7.784 5.712-13.272v-1.68h-21.336c-3.92 0-7 .84-9.24 2.52-2.24 1.68-3.36 4.032-3.36 7.056s1.176 5.488 3.528 7.392c2.352 1.904 5.768 2.856 10.248 2.856ZM505.176 208v-83.328h20.832v9.408h3.024c1.232-3.36 3.248-5.824 6.048-7.392 2.912-1.568 6.272-2.352 10.08-2.352h10.08v18.816h-10.416c-5.376 0-9.8 1.456-13.272 4.368-3.472 2.8-5.208 7.168-5.208 13.104V208h-21.168Zm95.576 2.352c-6.608 0-12.824-1.624-18.648-4.872-5.712-3.36-10.304-8.232-13.776-14.616-3.472-6.384-5.208-14.112-5.208-23.184v-2.688c0-9.072 1.736-16.8 5.208-23.184 3.472-6.384 8.064-11.2 13.776-14.448 5.712-3.36 11.928-5.04 18.648-5.04 5.04 0 9.24.616 12.6 1.848 3.472 1.12 6.272 2.576 8.4 4.368 2.128 1.792 3.752 3.696 4.872 5.712h3.024V90.4h21.168V208h-20.832v-10.08h-3.024c-1.904 3.136-4.872 5.992-8.904 8.568-3.92 2.576-9.688 3.864-17.304 3.864Zm6.384-18.48c6.496 0 11.928-2.072 16.296-6.216 4.368-4.256 6.552-10.416 6.552-18.48v-1.68c0-8.064-2.184-14.168-6.552-18.312-4.256-4.256-9.688-6.384-16.296-6.384-6.496 0-11.928 2.128-16.296 6.384-4.368 4.144-6.552 10.248-6.552 18.312v1.68c0 8.064 2.184 14.224 6.552 18.48 4.368 4.144 9.8 6.216 16.296 6.216ZM704.525 208c-5.488 0-9.968-1.68-13.44-5.04-3.36-3.472-5.04-8.064-5.04-13.776v-47.04h-20.832v-17.472h20.832V98.8h21.168v25.872h22.848v17.472h-22.848v43.344c0 3.36 1.568 5.04 4.704 5.04h16.128V208h-23.52Zm43.017 0v-83.328h20.832v9.408h3.024c1.232-3.36 3.248-5.824 6.048-7.392 2.912-1.568 6.272-2.352 10.08-2.352h10.08v18.816H787.19c-5.376 0-9.8 1.456-13.272 4.368-3.472 2.8-5.208 7.168-5.208 13.104V208h-21.168Zm99.944 2.352c-8.288 0-15.624-1.736-22.008-5.208-6.272-3.584-11.2-8.568-14.784-14.952-3.472-6.496-5.208-14.112-5.208-22.848v-2.016c0-8.736 1.736-16.296 5.208-22.68 3.472-6.496 8.344-11.48 14.616-14.952 6.272-3.584 13.552-5.376 21.84-5.376 8.176 0 15.288 1.848 21.336 5.544 6.048 3.584 10.752 8.624 14.112 15.12 3.36 6.384 5.04 13.832 5.04 22.344v7.224H826.99c.224 5.712 2.352 10.36 6.384 13.944 4.032 3.584 8.96 5.376 14.784 5.376 5.936 0 10.304-1.288 13.104-3.864 2.8-2.576 4.928-5.432 6.384-8.568l17.304 9.072c-1.568 2.912-3.864 6.104-6.888 9.576-2.912 3.36-6.832 6.272-11.76 8.736-4.928 2.352-11.2 3.528-18.816 3.528Zm-20.328-53.592h38.976c-.448-4.816-2.408-8.68-5.88-11.592-3.36-2.912-7.784-4.368-13.272-4.368-5.712 0-10.248 1.456-13.608 4.368-3.36 2.912-5.432 6.776-6.216 11.592Zm115.609 53.592c-8.288 0-15.624-1.736-22.008-5.208-6.272-3.584-11.2-8.568-14.784-14.952-3.472-6.496-5.208-14.112-5.208-22.848v-2.016c0-8.736 1.736-16.296 5.208-22.68 3.472-6.496 8.344-11.48 14.616-14.952 6.272-3.584 13.552-5.376 21.84-5.376 8.176 0 15.288 1.848 21.336 5.544 6.048 3.584 10.752 8.624 14.112 15.12 3.36 6.384 5.04 13.832 5.04 22.344v7.224h-60.648c.224 5.712 2.352 10.36 6.384 13.944 4.032 3.584 8.96 5.376 14.784 5.376 5.936 0 10.304-1.288 13.104-3.864 2.8-2.576 4.928-5.432 6.384-8.568l17.304 9.072c-1.568 2.912-3.864 6.104-6.888 9.576-2.912 3.36-6.832 6.272-11.76 8.736-4.928 2.352-11.2 3.528-18.816 3.528Zm-20.328-53.592h38.976c-.448-4.816-2.408-8.68-5.88-11.592-3.36-2.912-7.784-4.368-13.272-4.368-5.712 0-10.248 1.456-13.608 4.368-3.36 2.912-5.432 6.776-6.216 11.592Z"/><defs><linearGradient id="a" x1="147.5" x2="147.5" y1="9" y2="272" gradientUnits="userSpaceOnUse"><stop stop-color="#52525B"/><stop offset="1" stop-color="#18181B"/></linearGradient></defs></svg>